:FULLY-SPECIFIED
:FORCE-ALL-JOINTS-BE-3DOF
:DEGREES
1529
root -4.72291 15.3391 19.7398 552.797 -7.08545 560.073
lfemur -46.9172 16.0329 -8.96021
ltibia 88.2598 0 0
lfoot -16.6237 28.4445 0
ltoes -12.8242 0 0
rfemur -33.2741 -5.26317 18.5713
rtibia 54.8892 0 0
rfoot -17.8397 -23.1942 0
rtoes -31.7205 0 0
lowerback 17.1689 0.600065 6.04484
upperback -1.29015 2.34715 3.50767
thorax -11.1348 0.838275 -0.210316
lowerneck -4.24848 7.76658 4.6297
upperneck 1.52796 10.4335 -8.55894
head 1.84277 5.08639 -3.19842
lclavicle 6.07531e-14 4.72983e-14 0
lhumerus 24.8393 -12.5967 55.2006
lradius 74.1543 0 0
lwrist -17.7847 0 0
lhand -31.0213 69.847 0
lfingers 7.12502 0 0
lthumb -4.30342 -190.015 0
rclavicle 6.07531e-14 4.72983e-14 0
rhumerus -51.716 35.3678 -85.5235
rradius 104.008 0 0
rwrist -54.6333 0 0
rhand 6.72305 -32.1246 0
rfingers 7.12502 0 0
rthumb 32.0116 -59.3263 0
1530
root -4.68599 15.3471 19.8079 550.043 -9.9883 556.296
lfemur -45.1363 16.3853 -7.47804
ltibia 86.4019 0 0
lfoot -16.6781 28.3738 0
ltoes -12.8478 0 0
rfemur -33.2205 -5.96653 18.151
rtibia 55.3648 0 0
rfoot -17.7904 -23.2156 0
rtoes -32.0286 0 0
lowerback 16.9931 0.61725 5.69476
upperback -1.27731 2.26825 3.50178
thorax -11.0202 0.817002 0.00617114
lowerneck -4.36387 7.31657 4.29098
upperneck 1.39351 9.80909 -8.16045
head 1.7581 4.77563 -3.0332
lclavicle 6.19714e-14 4.73069e-14 0
lhumerus 18.0014 -9.44888 59.3505
lradius 70.5263 0 0
lwrist -19.3602 0 0
lhand -31.2424 70.6211 0
lfingers 7.12502 0 0
lthumb -4.51701 -177.72 0
rclavicle 6.19714e-14 4.73069e-14 0
rhumerus -52.332 33.5451 -86.3619
rradius 103.688 0 0
rwrist -55.1071 0 0
rhand 6.82359 -31.5701 0
rfingers 7.12502 0 0
rthumb 32.1066 -58.7457 0
1531
root -4.64908 15.3551 19.876 547.982 -13.6895 552.678
lfemur -43.2726 16.7848 -6.16105
ltibia 84.4304 0 0
lfoot -16.7881 28.2319 0
ltoes -13.0978 0 0
rfemur -33.1999 -6.74841 17.7048
rtibia 56.1447 0 0
rfoot -17.6698 -23.2272 0
rtoes -32.1352 0 0
lowerback 16.8086 0.620708 5.26878
upperback -1.26247 2.15663 3.502
thorax -10.8963 0.784608 0.281486
lowerneck -4.47904 6.79645 3.89573
upperneck 1.26293 9.09259 -7.7161
head 1.67164 4.41921 -2.84672
lclavicle 6.23946e-14 4.69642e-14 0
lhumerus 11.0494 -6.2865 63.6088
lradius 66.6951 0 0
lwrist -20.9326 0 0
lhand -31.4393 71.1861 0
lfingers 7.12502 0 0
lthumb -4.70715 -163 0
rclavicle 6.23946e-14 4.69642e-14 0
rhumerus -53.2699 31.7195 -87.4907
rradius 103.561 0 0
rwrist -55.7854 0 0
rhand 6.95455 -30.9864 0
rfingers 7.12502 0 0
rthumb 32.2309 -58.1326 0
1532
root -4.61216 15.3632 19.9441 546.79 -18.3101 549.343
lfemur -41.3383 17.2481 -5.0444
ltibia 82.372 0 0
lfoot -16.9712 28.0153 0
ltoes -13.5978 0 0
rfemur -33.2039 -7.61503 17.2367
rtibia 57.2559 0 0
rfoot -17.4673 -23.2375 0
rtoes -32.0244 0 0
lowerback 16.6135 0.607977 4.76336
upperback -1.24599 2.00879 3.51149
thorax -10.7622 0.739721 0.622108
lowerneck -4.59222 6.20214 3.44166
upperneck 1.13603 8.27868 -7.22447
head 1.58324 4.01457 -2.63832
lclavicle 6.19379e-14 4.62605e-14 0
lhumerus 4.00902 -3.103 67.959
lradius 62.6376 0 0
lwrist -22.5217 0 0
lhand -31.6144 71.5298 0
lfingers 7.12502 0 0
lthumb -4.87631 -145.568 0
rclavicle 6.19379e-14 4.62605e-14 0
rhumerus -54.6115 29.905 -88.971
rradius 103.663 0 0
rwrist -56.7232 0 0
rhand 7.12643 -30.3755 0
rfingers 7.12502 0 0
rthumb 32.3945 -57.4877 0
1533
root -4.57525 15.3712 20.0122 546.644 -23.9709 546.416
lfemur -39.3458 17.7919 -4.16329
ltibia 80.2538 0 0
lfoot -17.2451 27.7206 0
ltoes -14.3715 0 0
rfemur -33.2239 -8.57263 16.7508
rtibia 58.7255 0 0
rfoot -17.1724 -23.2551 0
rtoes -31.6804 0 0
lowerback 16.406 0.576597 4.17497
upperback -1.22823 1.82125 3.53343
thorax -10.617 0.680971 1.03452
lowerneck -4.70167 5.5296 2.92645
upperneck 1.01261 7.36209 -6.68415
head 1.49272 3.5591 -2.40737
lclavicle 6.05163e-14 4.51865e-14 0
lhumerus -3.09401 0.108156 72.3849
lradius 58.3305 0 0
lwrist -24.1472 0 0
lhand -31.7704 71.64 0
lfingers 7.12502 0 0
lthumb -5.02695 -125.138 0
rclavicle 6.05163e-14 4.51865e-14 0
rhumerus -56.4381 28.1155 -90.864
rradius 104.033 0 0
rwrist -57.9755 0 0
rhand 7.34973 -29.7394 0
rfingers 7.12502 0 0
rthumb 32.6075 -56.8118 0
1534
root -4.53833 15.3792 20.0803 547.722 -30.793 544.022
lfemur -37.3075 18.4331 -3.55288
ltibia 78.1027 0 0
lfoot -17.6273 27.3442 0
ltoes -15.4423 0 0
rfemur -33.2513 -9.62745 16.2511
rtibia 60.5806 0 0
rfoot -16.7747 -23.2886 0
rtoes -31.0872 0 0
lowerback 16.1844 0.524106 3.50005
upperback -1.20955 1.59053 3.57097
thorax -10.46 0.606985 1.52519
lowerneck -4.80562 4.77477 2.3478
upperneck 0.892484 6.33753 -6.09375
head 1.39991 3.05021 -2.15324
lclavicle 5.80451e-14 4.37326e-14 0
lhumerus -10.234 3.35353 76.8702
lradius 53.7508 0 0
lwrist -25.8288 0 0
lhand -31.9097 71.5048 0
lfingers 7.12502 0 0
lthumb -5.16151 -101.422 0
rclavicle 5.80451e-14 4.37326e-14 0
rhumerus -58.8316 26.3651 -93.231
rradius 104.71 0 0
rwrist -59.5973 0 0
rhand 7.63495 -29.0801 0
rfingers 7.12502 0 0
rthumb 32.8799 -56.1055 0
1535
root -4.65266 15.3866 20.0946 548.953 -37.6965 542.474
lfemur -35.4566 19.1016 -3.21294
ltibia 76.0674 0 0
lfoot -17.9966 26.9322 0
ltoes -16.6506 0 0
rfemur -33.3282 -10.6855 15.8077
rtibia 62.7475 0 0
rfoot -16.439 -23.3727 0
rtoes -30.3545 0 0
lowerback 15.9863 0.464009 2.82249
upperback -1.18715 1.35185 3.60555
thorax -10.3117 0.529579 2.0161
lowerneck -4.9049 4.04586 1.78835
upperneck 0.774313 5.35177 -5.53575
head 1.31002 2.56083 -1.91043
lclavicle 5.46751e-14 4.21163e-14 0
lhumerus -16.5928 6.28164 80.8745
lradius 49.3943 0 0
lwrist -27.344 0 0
lhand -32.0309 71.134 0
lfingers 7.12502 0 0
lthumb -5.2785 -77.7874 0
rclavicle 5.46751e-14 4.21163e-14 0
rhumerus -61.5281 24.8882 -95.7147
rradius 105.625 0 0
rwrist -61.3162 0 0
rhand 7.74736 -28.433 0
rfingers 7.12502 0 0
rthumb 33.0088 -55.5794 0
1536
root -4.767 15.3939 20.1089 549.247 -43.5779 541.9
lfemur -33.9912 19.7125 -3.10694
ltibia 74.262 0 0
lfoot -18.2293 26.5309 0
ltoes -17.8247 0 0
rfemur -33.4981 -11.65 15.4782
rtibia 65.1087 0 0
rfoot -16.3153 -23.5246 0
rtoes -29.5982 0 0
lowerback 15.847 0.410874 2.22276
upperback -1.15861 1.14081 3.61792
thorax -10.1916 0.460892 2.4303
lowerneck -5.001 3.44444 1.32476
upperneck 0.658774 4.54229 -5.08567
head 1.22861 2.15921 -1.7107
lclavicle 5.06672e-14 4.05441e-14 0
lhumerus -21.4558 8.56198 83.9277
lradius 45.7455 0 0
lwrist -28.4694 0 0
lhand -32.1279 70.5533 0
lfingers 7.12502 0 0
lthumb -5.37213 -57.595 0
rclavicle 5.06672e-14 4.05441e-14 0
rhumerus -64.1843 23.8777 -97.9225
rradius 106.666 0 0
rwrist -62.8252 0 0
rhand 7.4825 -27.8326 0
rfingers 7.12502 0 0
rthumb 32.8157 -55.4102 0
1537
root -4.88133 15.4013 20.1232 548.749 -48.5226 542.144
lfemur -32.8705 20.2601 -3.21565
ltibia 72.6615 0 0
lfoot -18.339 26.1373 0
ltoes -18.9703 0 0
rfemur -33.7547 -12.5231 15.248
rtibia 67.6254 0 0
rfoot -16.3714 -23.7262 0
rtoes -28.8119 0 0
lowerback 15.7609 0.363833 1.69224
upperback -1.12484 0.954465 3.61025
thorax -10.0974 0.40004 2.77587
lowerneck -5.09317 2.95647 0.945703
upperneck 0.548683 3.88986 -4.7316
head 1.15605 1.83576 -1.54926
lclavicle 4.61018e-14 3.89896e-14 0
lhumerus -24.953 10.2326 86.119
lradius 42.7642 0 0
lwrist -29.2232 0 0
lhand -32.1966 69.7745 0
lfingers 7.12502 0 0
lthumb -5.43849 -40.5492 0
rclavicle 4.61018e-14 3.89896e-14 0
rhumerus -66.7626 23.285 -99.8627
rradius 107.809 0 0
rwrist -64.1272 0 0
rhand 6.89631 -27.2794 0
rfingers 7.12502 0 0
rthumb 32.3478 -55.5478 0
1538
root -4.99566 15.4086 20.1375 547.607 -52.6161 543.053
lfemur -32.0539 20.7387 -3.51981
ltibia 71.2409 0 0
lfoot -18.3398 25.7483 0
ltoes -20.0932 0 0
rfemur -34.0916 -13.3071 15.1026
rtibia 70.2588 0 0
rfoot -16.5746 -23.9592 0
rtoes -27.9893 0 0
lowerback 15.7225 0.322022 1.22231
upperback -1.08675 0.78985 3.58467
thorax -10.0267 0.346139 3.06092
lowerneck -5.18066 2.56793 0.63988
upperneck 0.446854 3.37525 -4.46166
head 1.0927 1.5809 -1.42134
lclavicle 4.1059e-14 3.74266e-14 0
lhumerus -27.2141 11.3314 87.5378
lradius 40.41 0 0
lwrist -29.6238 0 0
lhand -32.2331 68.8092 0
lfingers 7.12502 0 0
lthumb -5.47362 -26.3545 0
rclavicle 4.1059e-14 3.74266e-14 0
rhumerus -69.2253 23.0614 -101.543
rradius 109.027 0 0
rwrist -65.2253 0 0
rhand 6.04471 -26.7739 0
rfingers 7.12502 0 0
rthumb 31.652 -55.9423 0
1539
root -5.11 15.416 20.1518 545.966 -55.9437 544.473
lfemur -31.5007 21.1428 -4.00017
ltibia 69.975 0 0
lfoot -18.2454 25.3608 0
ltoes -21.1989 0 0
rfemur -34.5026 -14.004 15.0272
rtibia 72.9704 0 0
rfoot -16.8927 -24.2056 0
rtoes -27.1241 0 0
lowerback 15.7264 0.284573 0.804341
upperback -1.04526 0.644019 3.54335
thorax -9.97707 0.298305 3.29352
lowerneck -5.26269 2.26478 0.395982
upperneck 0.356101 2.97925 -4.26395
head 1.03893 1.38504 -1.32215
lclavicle 3.56191e-14 3.58289e-14 0
lhumerus -28.3691 11.8966 88.2732
lradius 38.6426 0 0
lwrist -29.6894 0 0
lhand -32.2331 67.6693 0
lfingers 7.12502 0 0
lthumb -5.47358 -14.7152 0
rclavicle 3.56191e-14 3.58289e-14 0
rhumerus -71.5348 23.1582 -102.973
rradius 110.294 0 0
rwrist -66.1222 0 0
rhand 4.98365 -26.3167 0
rfingers 7.12502 0 0
rthumb 30.7753 -56.5437 0
1540
root -5.22433 15.4234 20.166 543.973 -58.5908 546.249
lfemur -31.1702 21.4666 -4.63751
ltibia 68.8388 0 0
lfoot -18.0698 24.9717 0
ltoes -22.2931 0 0
rfemur -34.9812 -14.616 15.0072
rtibia 75.7213 0 0
rfoot -17.2932 -24.4471 0
rtoes -26.2096 0 0
lowerback 15.767 0.250622 0.429701
upperback -1.00128 0.514018 3.48843
thorax -9.94621 0.255653 3.48178
lowerneck -5.33853 2.033 0.202698
upperneck 0.279241 2.68261 -4.12659
head 0.995091 1.23861 -1.24693
lclavicle 2.98623e-14 3.41701e-14 0
lhumerus -28.5476 11.9661 88.4145
lradius 37.4219 0 0
lwrist -29.4383 0 0
lhand -32.1927 66.3664 0
lfingers 7.12502 0 0
lthumb -5.43445 -5.33569 0
rclavicle 2.98623e-14 3.41701e-14 0
rhumerus -73.6534 23.5269 -104.16
rradius 111.584 0 0
rwrist -66.821 0 0
rhand 3.76905 -25.9084 0
rfingers 7.12502 0 0
rthumb 29.7648 -57.3019 0
1541
root -5.33866 15.4307 20.1803 541.774 -60.6429 548.227
lfemur -31.0218 21.7046 -5.41256
ltibia 67.8072 0 0
lfoot -17.8268 24.5781 0
ltoes -23.3816 0 0
rfemur -35.5213 -15.1453 15.028
rtibia 78.4727 0 0
rfoot -17.7437 -24.6658 0
rtoes -25.2397 0 0
lowerback 15.8388 0.219301 0.0897656
upperback -0.955725 0.396896 3.42208
thorax -9.93169 0.2173 3.63379
lowerneck -5.40741 1.85855 0.0487219
upperneck 0.219086 2.46611 -4.03768
head 0.961557 1.132 -1.19089
lclavicle 2.38689e-14 3.24239e-14 0
lhumerus -27.8795 11.5779 88.0511
lradius 36.7074 0 0
lwrist -28.8887 0 0
lhand -32.1077 64.9122 0
lfingers 7.12502 0 0
lthumb -5.35227 2.07959 0
rclavicle 2.38689e-14 3.24239e-14 0
rhumerus -75.5434 24.1187 -105.112
rradius 112.871 0 0
rwrist -67.3246 0 0
rhand 2.45685 -25.5493 0
rfingers 7.12502 0 0
rthumb 28.6675 -58.167 0
